<svg width="19" height="14" viewBox="0 0 19 14" fill="none" xmlns="http://www.w3.org/2000/svg">
<path d="M12.1134 6.99999C12.1134 7.68197 11.8425 8.33603 11.3603 8.81826C10.878 9.3005 10.224 9.57142 9.54201 9.57142C8.86002 9.57142 8.20597 9.3005 7.72373 8.81826C7.2415 8.33603 6.97058 7.68197 6.97058 6.99999C6.97058 6.318 7.2415 5.66395 7.72373 5.18171C8.20597 4.69948 8.86002 4.42856 9.54201 4.42856C10.224 4.42856 10.878 4.69948 11.3603 5.18171C11.8425 5.66395 12.1134 6.318 12.1134 6.99999V6.99999Z" stroke="#C4C4C4" stroke-width="2" stroke-linecap="round" stroke-linejoin="round"/>
<path d="M1.36316 7C2.45516 3.52257 5.70459 1 9.54202 1C13.3803 1 16.6289 3.52257 17.7209 7C16.6289 10.4774 13.3803 13 9.54202 13C5.70459 13 2.45516 10.4774 1.36316 7V7Z" stroke="#C4C4C4" stroke-width="2" stroke-linecap="round" stroke-linejoin="round"/>
</svg>
